<?xml version="1.0" encoding="UTF-8"?>
<svg xmlns="http://www.w3.org/2000/svg" xmlns:xlink="http://www.w3.org/1999/xlink" width="12pt" height="13pt" viewBox="0 0 12 13" version="1.1">
<g id="surface1">
<path style=" stroke:none;fill-rule:nonzero;fill:rgb(100%,100%,100%);fill-opacity:1;" d="M 6 6.601562 C 7.894531 6.601562 9.429688 5.125 9.429688 3.300781 C 9.429688 1.476562 7.894531 0 6 0 C 4.105469 0 2.570312 1.476562 2.570312 3.300781 C 2.570312 5.125 4.105469 6.601562 6 6.601562 Z M 8.566406 7.441406 L 7.285156 12.378906 L 6.429688 8.871094 L 7.285156 7.425781 L 4.714844 7.425781 L 5.570312 8.871094 L 4.714844 12.378906 L 3.433594 7.441406 C 1.523438 7.53125 0 9.035156 0 10.894531 L 0 11.964844 C 0 12.648438 0.574219 13.203125 1.285156 13.203125 L 10.714844 13.203125 C 11.425781 13.203125 12 12.648438 12 11.964844 L 12 10.894531 C 12 9.035156 10.476562 7.53125 8.566406 7.441406 Z M 8.566406 7.441406 "/>
</g>
</svg>
