<?xml version="1.0" encoding="UTF-8"?>
<svg xmlns="http://www.w3.org/2000/svg" xmlns:xlink="http://www.w3.org/1999/xlink" width="12pt" height="13pt" viewBox="0 0 12 13" version="1.1">
<g id="surface1">
<path fill="#fff" d="M 8.347656 9.515625 L 7.894531 9.945312 C 7.769531 10.066406 7.5625 10.066406 7.4375 9.945312 L 6 8.578125 L 4.5625 9.941406 C 4.4375 10.0625 4.230469 10.0625 4.105469 9.941406 L 3.652344 9.511719 C 3.523438 9.390625 3.523438 9.199219 3.652344 9.078125 L 5.089844 7.714844 L 3.652344 6.351562 C 3.523438 6.234375 3.523438 6.039062 3.652344 5.921875 L 4.105469 5.488281 C 4.230469 5.371094 4.4375 5.371094 4.5625 5.488281 L 6 6.851562 L 7.4375 5.488281 C 7.5625 5.371094 7.769531 5.371094 7.894531 5.488281 L 8.347656 5.921875 C 8.476562 6.039062 8.476562 6.234375 8.347656 6.351562 L 6.90625 7.71875 L 8.347656 9.082031 C 8.476562 9.203125 8.476562 9.394531 8.347656 9.515625 Z M 12 2.84375 L 12 11.78125 C 12 12.453125 11.425781 13 10.714844 13 L 1.285156 13 C 0.574219 13 0 12.453125 0 11.78125 L 0 2.84375 C 0 2.171875 0.574219 1.625 1.285156 1.625 L 2.570312 1.625 L 2.570312 0.304688 C 2.570312 0.136719 2.714844 0 2.894531 0 L 3.964844 0 C 4.140625 0 4.285156 0.136719 4.285156 0.304688 L 4.285156 1.625 L 7.714844 1.625 L 7.714844 0.304688 C 7.714844 0.136719 7.859375 0 8.035156 0 L 9.105469 0 C 9.285156 0 9.429688 0.136719 9.429688 0.304688 L 9.429688 1.625 L 10.714844 1.625 C 11.425781 1.625 12 2.171875 12 2.84375 Z M 10.714844 11.628906 L 10.714844 4.0625 L 1.285156 4.0625 L 1.285156 11.628906 C 1.285156 11.710938 1.359375 11.78125 1.445312 11.78125 L 10.554688 11.78125 C 10.640625 11.78125 10.714844 11.710938 10.714844 11.628906 Z M 10.714844 11.628906 "/>
</g>
</svg>
